<svg width="284" height="83" viewBox="0 0 284 83" fill="none" xmlns="http://www.w3.org/2000/svg">
<path d="M41.6128 0.770933C40.0941 1.15061 37.5123 2.66933 35.8417 4.03617C30.2984 8.82013 30.3743 8.28858 30.3743 41.3966C30.3743 68.4298 30.5262 71.0875 31.8171 73.8971C34.5508 79.8201 39.031 82.6298 45.6374 82.6298C50.3454 82.6298 53.6107 81.2629 56.7241 77.9977C60.2171 74.2768 60.7487 72.1506 60.7487 62.8105V54.4576L55.661 54.6854L50.4973 54.9132L50.2695 62.5068C50.1176 69.1132 49.8898 70.2522 48.523 71.3913C46.3968 73.1378 44.4224 73.1378 42.5241 71.2394C41.0813 69.7966 41.0053 68.7335 41.0053 41.6244C41.0053 14.5153 41.0813 13.4522 42.5241 12.0094C44.4224 10.111 46.3968 10.111 48.523 11.7816C49.8898 12.9966 50.1176 14.1356 50.2695 20.7421L50.4973 28.3356L55.661 28.5634L60.7487 28.7913V20.4383C60.7487 15.8822 60.369 11.1741 59.9134 9.95917C58.5465 6.31425 53.9144 2.21371 49.8139 0.99874C45.6374 -0.292169 45.4856 -0.292169 41.6128 0.770933Z" fill="white"/>
<path d="M114.283 0.694997C110.259 1.60623 105.703 5.40302 103.956 9.27575C102.665 12.1613 102.513 14.8191 102.513 41.6244C102.513 73.8971 102.589 74.3528 107.525 78.9848C110.487 81.7185 113.144 82.6298 118.384 82.6298C124.231 82.6298 128.863 79.7442 131.445 74.5806C133.267 70.9356 133.267 70.556 133.495 44.51C133.799 16.2618 133.343 11.2501 130.306 6.61799C127.193 1.98591 120.055 -0.595912 114.283 0.694997ZM121.194 12.0854C122.56 13.6041 122.636 15.1987 122.636 41.7763V69.8725L120.814 71.3153C118.536 73.1378 116.561 73.1378 114.663 71.2394C113.22 69.7966 113.144 68.7335 113.144 41.6244C113.144 14.5153 113.22 13.4522 114.663 12.0094C116.637 10.0351 119.371 10.111 121.194 12.0854Z" fill="white"/>
<path d="M0 38.511C0 60.8362 0.303743 77.2383 0.759358 78.3774C2.05027 81.7945 5.01176 82.6298 15.5668 82.6298H25.0588V77.3143V72.0747L18.0727 71.8469L11.0107 71.6191L10.7829 59.2415L10.631 46.9399H16.7059H22.7807V41.6244V36.3089H16.7059H10.631V23.7795V11.2501H17.8449H25.0588V5.93458V0.619069H12.5294H0V38.511Z" fill="white"/>
<path d="M73.8096 2.21372C71.6075 3.35276 69.9369 4.94741 68.4941 7.37736C66.5957 10.6426 66.4438 11.4779 66.4438 19.603C66.5198 29.2469 67.2032 31.525 71.3797 35.018C75.784 38.7389 83.6813 39.6501 88.769 37.1442C92.6417 35.1699 96.2866 30.8415 96.8941 27.5763C97.1219 26.1335 97.1979 21.5774 97.046 17.4768C96.6663 8.59233 95.5273 6.01051 90.5155 2.82121C87.554 0.99875 86.2631 0.61907 82.0866 0.61907C78.5176 0.61907 76.1636 1.07469 73.8096 2.21372ZM86.1112 10.9463C87.0225 11.8576 87.3262 13.8319 87.3262 19.603C87.3262 26.5132 87.1743 27.1966 85.6556 28.2597C83.3016 29.9303 79.277 29.7784 77.4545 27.956C76.1636 26.6651 75.9358 25.4501 75.9358 19.4512C75.9358 11.0982 76.7711 9.73137 81.7069 9.73137C83.6053 9.73137 85.4278 10.187 86.1112 10.9463Z" fill="white"/>
<path d="M150.733 1.45433C150.505 2.06182 150.429 20.4383 150.505 42.3837L150.733 82.2501H160.604C171.615 82.1741 173.437 81.6426 177.538 77.0105C181.411 72.6062 181.563 70.7078 181.335 39.8019L181.107 11.4779L178.981 8.3645C177.842 6.61797 175.488 4.26396 173.741 3.12492C170.78 1.15059 170.02 0.99872 160.832 0.694976C153.163 0.543105 151.036 0.694976 150.733 1.45433ZM169.337 12.7688C170.78 14.2116 170.856 15.2747 170.856 41.6244C170.856 67.9741 170.78 69.0372 169.337 70.48C168.274 71.5431 166.831 71.9987 164.401 71.9987H160.984V41.6244V11.2501H164.401C166.831 11.2501 168.274 11.7057 169.337 12.7688Z" fill="white"/>
<path d="M186.802 19.1474V37.8276H191.738H196.674V32.8918V27.956H200.091C204.723 27.956 206.545 29.7784 206.545 34.4105V37.8276H211.861H217.176V34.8661C217.176 31.2212 214.595 27.1966 211.329 25.6779C208.14 24.2351 208.216 23.3239 211.633 21.5014C219.151 17.4009 218.999 6.54208 211.405 2.59341C208.899 1.22657 206.697 0.922825 197.661 0.770954L186.802 0.46721V19.1474ZM206.014 10.5667C208.14 11.7057 208.824 12.6929 208.824 14.8191C208.824 17.5528 205.406 19.603 200.774 19.603H196.674V14.6672V9.73138H200.547C202.673 9.73138 205.103 10.1111 206.014 10.5667Z" fill="white"/>
<path d="M221.733 0.998756C221.733 1.22656 224.087 19.4512 227.048 41.4726C229.934 63.4939 232.364 81.7945 232.364 82.0982C232.364 82.402 235.021 82.6298 238.211 82.4779L244.058 82.2501L249.221 43.5228C252.031 22.1849 254.309 3.88432 254.385 2.66934C254.385 0.619076 254.309 0.619076 249.449 0.619076C244.969 0.619076 244.513 0.770948 244.21 2.28966C243.147 6.99769 239.957 36.3849 239.502 45.3453C239.198 50.9645 238.742 56.4319 238.363 57.495L237.831 59.4693L237.755 57.4191C237.451 48.9902 235.781 29.6266 234.262 17.249C233.199 9.04795 232.364 1.98592 232.364 1.53031C232.364 0.92282 230.541 0.619076 227.048 0.619076C224.163 0.619076 221.733 0.770948 221.733 0.998756Z" fill="white"/>
<path d="M258.941 38.587C258.941 66.3795 259.169 77.0105 259.852 78.4533C261.371 81.8704 263.953 82.6298 274.508 82.6298H284V77.3143V72.0747L277.014 71.8469L269.952 71.6191L269.724 59.2415L269.572 46.9399H275.647H281.722V41.6244V36.3089H275.647H269.572V23.7795V11.2501H276.786H284V5.93458V0.619069H271.471H258.941V38.587Z" fill="white"/>
<path d="M66.216 63.7977L66.4438 82.2501L71.2278 82.4779L75.9358 82.7057V74.8843C75.9358 70.1763 75.4802 65.6201 74.7968 63.3421C74.1893 61.2918 73.8096 59.4693 73.9615 59.3175C74.3412 58.9378 78.3658 66.2276 83.0738 75.5677L86.5668 82.6298H91.8823H97.1978V64.0255V45.4212H92.262H87.3262V52.4073C87.3262 57.1912 87.7818 61.064 88.769 64.1773C89.6043 66.8351 89.9839 68.9613 89.6802 68.9613C89.3764 68.9613 86.4149 63.6458 83.0738 57.1912L77.0748 45.4212H71.5315H66.0641L66.216 63.7977Z" fill="white"/>
<path d="M186.802 49.9774V54.5335H192.118H197.433V64.0255V73.5175H192.118H186.802V78.0736V82.6298H201.989H217.176V78.0736V73.5175H212.241H207.305V64.0255V54.5335H212.241H217.176V49.9774V45.4212H201.989H186.802V49.9774Z" fill="white"/>
</svg>
